<svg xmlns="http://www.w3.org/2000/svg" xmlns:xlink="http://www.w3.org/1999/xlink" xmlns:lucid="lucid" width="647" height="2146"><g transform="translate(-1444.3333333333335 -2602.5)"><path d="M1000 2500h1500v2500H1000z" fill="#fff"/><path d="M1499 3175.5a6 6 0 0 1 6-6h190a6 6 0 0 1 6 6v273a6 6 0 0 1-6 6h-190a6 6 0 0 1-6-6z" stroke="#00c2a8" stroke-width="2" fill="#d7faf5"/><path d="M1499 3207.1h202m-202 188.7h202" stroke="#00c2a8" stroke-width="2" fill="none"/><use xlink:href="#a" transform="matrix(1,0,0,1,1507.0000000000002,3177.5) translate(74.05 14.6)"/><use xlink:href="#b" transform="matrix(1,0,0,1,1511.0000000000002,3215.1) translate(0 25.300000000000004)"/><use xlink:href="#c" transform="matrix(1,0,0,1,1511.0000000000002,3215.1) translate(45 25.300000000000004)"/><use xlink:href="#d" transform="matrix(1,0,0,1,1511.0000000000002,3215.1) translate(0 46.900000000000006)"/><use xlink:href="#e" transform="matrix(1,0,0,1,1511.0000000000002,3215.1) translate(51.9 46.900000000000006)"/><use xlink:href="#d" transform="matrix(1,0,0,1,1511.0000000000002,3215.1) translate(0 68.50000000000001)"/><use xlink:href="#f" transform="matrix(1,0,0,1,1511.0000000000002,3215.1) translate(51.9 68.50000000000001)"/><use xlink:href="#d" transform="matrix(1,0,0,1,1511.0000000000002,3215.1) translate(0 90.10000000000002)"/><use xlink:href="#g" transform="matrix(1,0,0,1,1511.0000000000002,3215.1) translate(51.9 90.10000000000002)"/><use xlink:href="#h" transform="matrix(1,0,0,1,1511.0000000000002,3215.1) translate(0 111.70000000000002)"/><use xlink:href="#i" transform="matrix(1,0,0,1,1511.0000000000002,3215.1) translate(51.95 111.70000000000002)"/><use xlink:href="#j" transform="matrix(1,0,0,1,1511.0000000000002,3215.1) translate(0 133.3)"/><use xlink:href="#k" transform="matrix(1,0,0,1,1511.0000000000002,3215.1) translate(0 154.9)"/><path d="M1867.33 3801.5a6 6 0 0 1 6-6h191a6 6 0 0 1 6 6v360a6 6 0 0 1-6 6h-191a6 6 0 0 1-6-6z" stroke="#00c2a8" stroke-width="2" fill="#d7faf5"/><path d="M1867.33 3833.1h203m-203 275.1h203" stroke="#00c2a8" stroke-width="2" fill="none"/><use xlink:href="#l" transform="matrix(1,0,0,1,1875.3333333333335,3803.5) translate(36.074999999999996 14.6)"/><use xlink:href="#b" transform="matrix(1,0,0,1,1879.3333333333335,3841.1) translate(0 25.600000000000016)"/><use xlink:href="#m" transform="matrix(1,0,0,1,1879.3333333333335,3841.1) translate(45 25.600000000000016)"/><use xlink:href="#d" transform="matrix(1,0,0,1,1879.3333333333335,3841.1) translate(0 47.20000000000002)"/><use xlink:href="#n" transform="matrix(1,0,0,1,1879.3333333333335,3841.1) translate(51.9 47.20000000000002)"/><use xlink:href="#d" transform="matrix(1,0,0,1,1879.3333333333335,3841.1) translate(0 68.80000000000003)"/><use xlink:href="#o" transform="matrix(1,0,0,1,1879.3333333333335,3841.1) translate(51.9 68.80000000000003)"/><use xlink:href="#p" transform="matrix(1,0,0,1,1879.3333333333335,3841.1) translate(0 90.40000000000003)"/><use xlink:href="#q" transform="matrix(1,0,0,1,1879.3333333333335,3841.1) translate(95.75 90.40000000000003)"/><use xlink:href="#h" transform="matrix(1,0,0,1,1879.3333333333335,3841.1) translate(0 112.00000000000003)"/><use xlink:href="#r" transform="matrix(1,0,0,1,1879.3333333333335,3841.1) translate(51.95 112.00000000000003)"/><use xlink:href="#s" transform="matrix(1,0,0,1,1879.3333333333335,3841.1) translate(0 133.60000000000002)"/><use xlink:href="#t" transform="matrix(1,0,0,1,1879.3333333333335,3841.1) translate(0 155.20000000000002)"/><use xlink:href="#s" transform="matrix(1,0,0,1,1879.3333333333335,3841.1) translate(0 176.8)"/><use xlink:href="#u" transform="matrix(1,0,0,1,1879.3333333333335,3841.1) translate(0 198.4)"/><use xlink:href="#v" transform="matrix(1,0,0,1,1879.3333333333335,3841.1) translate(0 220)"/><use xlink:href="#w" transform="matrix(1,0,0,1,1879.3333333333335,3841.1) translate(0 241.6)"/><path d="M1867.83 4534.5a6 6 0 0 1 6-6h190a6 6 0 0 1 6 6v187a6 6 0 0 1-6 6h-190a6 6 0 0 1-6-6z" stroke="#00c2a8" stroke-width="2" fill="#d7faf5"/><path d="M1867.83 4566.1h202m-202 102.3h202" stroke="#00c2a8" stroke-width="2" fill="none"/><use xlink:href="#x" transform="matrix(1,0,0,1,1875.8333333333335,4536.5) translate(56.55 14.6)"/><use xlink:href="#b" transform="matrix(1,0,0,1,1879.8333333333335,4574.1) translate(0 25.5)"/><use xlink:href="#y" transform="matrix(1,0,0,1,1879.8333333333335,4574.1) translate(45 25.5)"/><use xlink:href="#d" transform="matrix(1,0,0,1,1879.8333333333335,4574.1) translate(0 47.1)"/><use xlink:href="#z" transform="matrix(1,0,0,1,1879.8333333333335,4574.1) translate(51.9 47.1)"/><use xlink:href="#d" transform="matrix(1,0,0,1,1879.8333333333335,4574.1) translate(0 68.7)"/><use xlink:href="#A" transform="matrix(1,0,0,1,1879.8333333333335,4574.1) translate(51.9 68.7)"/><path d="M1532.33 2629.5a6 6 0 0 1 6-6h191a6 6 0 0 1 6 6v252a6 6 0 0 1-6 6h-191a6 6 0 0 1-6-6z" stroke="#00c2a8" stroke-width="2" fill="#d7faf5"/><path d="M1532.33 2661.1h203m-203 167.1h203" stroke="#00c2a8" stroke-width="2" fill="none"/><use xlink:href="#B" transform="matrix(1,0,0,1,1540.3333333333335,2631.5) translate(70.55 14.6)"/><use xlink:href="#b" transform="matrix(1,0,0,1,1544.3333333333335,2669.1) translate(0 25.6)"/><use xlink:href="#C" transform="matrix(1,0,0,1,1544.3333333333335,2669.1) translate(45 25.6)"/><use xlink:href="#b" transform="matrix(1,0,0,1,1544.3333333333335,2669.1) translate(0 47.2)"/><use xlink:href="#D" transform="matrix(1,0,0,1,1544.3333333333335,2669.1) translate(45 47.2)"/><use xlink:href="#b" transform="matrix(1,0,0,1,1544.3333333333335,2669.1) translate(0 68.80000000000001)"/><use xlink:href="#m" transform="matrix(1,0,0,1,1544.3333333333335,2669.1) translate(45 68.80000000000001)"/><use xlink:href="#h" transform="matrix(1,0,0,1,1544.3333333333335,2669.1) translate(0 90.40000000000002)"/><use xlink:href="#r" transform="matrix(1,0,0,1,1544.3333333333335,2669.1) translate(51.95 90.40000000000002)"/><use xlink:href="#s" transform="matrix(1,0,0,1,1544.3333333333335,2669.1) translate(0 112.00000000000001)"/><use xlink:href="#E" transform="matrix(1,0,0,1,1544.3333333333335,2669.1) translate(0 133.6)"/><path d="M1465.33 3801.5a6 6 0 0 1 6-6h190a6 6 0 0 1 6 6v209a6 6 0 0 1-6 6h-190a6 6 0 0 1-6-6z" stroke="#00c2a8" stroke-width="2" fill="#d7faf5"/><path d="M1465.33 3833.1h202m-202 123.9h202" stroke="#00c2a8" stroke-width="2" fill="none"/><g><use xlink:href="#F" transform="matrix(1,0,0,1,1473.3333333333335,3803.5) translate(36.05 14.6)"/></g><g><use xlink:href="#b" transform="matrix(1,0,0,1,1477.3333333333335,3841.1) translate(0 25.19999999999999)"/><use xlink:href="#G" transform="matrix(1,0,0,1,1477.3333333333335,3841.1) translate(45 25.19999999999999)"/><use xlink:href="#b" transform="matrix(1,0,0,1,1477.3333333333335,3841.1) translate(0 46.79999999999999)"/><use xlink:href="#c" transform="matrix(1,0,0,1,1477.3333333333335,3841.1) translate(45 46.79999999999999)"/><use xlink:href="#d" transform="matrix(1,0,0,1,1477.3333333333335,3841.1) translate(0 68.39999999999999)"/><use xlink:href="#e" transform="matrix(1,0,0,1,1477.3333333333335,3841.1) translate(51.9 68.39999999999999)"/><use xlink:href="#d" transform="matrix(1,0,0,1,1477.3333333333335,3841.1) translate(0 90)"/><use xlink:href="#H" transform="matrix(1,0,0,1,1477.3333333333335,3841.1) translate(51.9 90)"/></g><path d="M1928.84 3695.03l1 .07.98.24.94.4.87.52.77.66.66.77.53.86.38.94.23 1 .1.98v92.1h-.96v-92.06l-.07-.88-.2-.85-.33-.8-.45-.75-.58-.66-.65-.57-.74-.45-.8-.33-.85-.2-.88-.08h-179.1v-.94zm-294.4-4.67l.2.85.34.8.45.75.57.66.66.57.73.45.8.33.84.2.88.08h38.12v.94h-38.16l-1-.07-.98-.24-.94-.4-.86-.52-.78-.66-.66-.77-.53-.86-.4-.94-.22-1-.07-.98V3456h.95v233.48z" stroke="#3a414a" stroke-width=".05" fill="#3a414a"/><path d="M1634.38 3456h-.95v-.5h.95z" fill="#3a414a"/><path stroke="#3a414a" stroke-width=".05" fill="#3a414a"/><path d="M1945.23 3776.42l-10.4 18.03-10.42-18.03.83-.48 9.6 16.6 9.58-16.6z" stroke="#3a414a" stroke-width=".05" fill="#3a414a"/><g><use xlink:href="#I" transform="matrix(1,0,0,1,1678.0355103031463,3684.7) translate(0 14.4)"/></g><path d="M1969.3 4527h-.94v-168.2h.95zm0-189.8h-.94V4169h.95z" stroke="#3a414a" stroke-width=".05" fill="#3a414a"/><path d="M1969.3 4169h-.94v-.5h.95z" fill="#3a414a"/><path stroke="#3a414a" stroke-width=".05" fill="#3a414a"/><path d="M1969.3 4527.5h-.94v-.5h.95z" fill="#3a414a"/><path stroke="#3a414a" stroke-width=".05" fill="#3a414a"/><g><use xlink:href="#J" transform="matrix(1,0,0,1,1890.5583333333334,4337.2) translate(0 14.4)"/><use xlink:href="#K" transform="matrix(1,0,0,1,1890.5583333333334,4337.2) translate(104.25 14.4)"/></g><path d="M2003.32 3793.6h-.95v-608.76h.95zm-334.92-730.12l.07.88.2.85.33.8.45.75.57.66.66.57.73.45.82.33.84.2.88.08h322.93l1 .07.98.24.94.4.86.52.77.66.66.77.52.86.4.94.22 1 .08.98v87.76h-.95v-87.72l-.07-.88-.2-.85-.33-.8-.45-.75-.57-.66-.65-.57-.74-.45-.8-.33-.85-.2-.87-.08H1673.9l-1-.07-.98-.24-.94-.4-.86-.52-.78-.66-.66-.77-.53-.86-.4-.94-.22-1-.08-.98V2889h.95z" stroke="#3a414a" stroke-width=".05" fill="#3a414a"/><path d="M1668.4 2889h-.95v-.5h.95z" fill="#3a414a"/><path stroke="#3a414a" stroke-width=".05" fill="#3a414a"/><path d="M2013.26 3776.42l-10.4 18.03-10.42-18.03.82-.48 9.6 16.6 9.58-16.6z" stroke="#3a414a" stroke-width=".05" fill="#3a414a"/><g><use xlink:href="#L" transform="matrix(1,0,0,1,1935.0735604527158,3163.237183148972) translate(0 14.4)"/><use xlink:href="#M" transform="matrix(1,0,0,1,1935.0735604527158,3163.237183148972) translate(97.30000000000001 14.4)"/></g><path d="M1600.47 3167.6h-.94v-128.3h.94zm-.25-149.9h-.95V2889h.95z" stroke="#3a414a" stroke-width=".05" fill="#3a414a"/><path d="M1600.22 2889h-.95v-.5h.95z" fill="#3a414a"/><path stroke="#3a414a" stroke-width=".05" fill="#3a414a"/><path d="M1610.4 3150.42l-10.4 18.03-10.4-18.03.8-.48 9.6 16.6 9.6-16.6z" stroke="#3a414a" stroke-width=".05" fill="#3a414a"/><g><use xlink:href="#N" transform="matrix(1,0,0,1,1535.0968475548361,3017.700008923989) translate(0 14.4)"/><use xlink:href="#O" transform="matrix(1,0,0,1,1535.0968475548361,3017.700008923989) translate(58.25 14.4)"/><use xlink:href="#P" transform="matrix(1,0,0,1,1535.0968475548361,3017.700008923989) translate(78.25 14.4)"/></g><path d="M1566.8 3793.6h-.94v-157.8h.95zm-.23-179.4h-.95V3456h.95z" stroke="#3a414a" stroke-width=".05" fill="#3a414a"/><path d="M1566.57 3456h-.95v-.5h.95z" fill="#3a414a"/><path stroke="#3a414a" stroke-width=".05" fill="#3a414a"/><path d="M1576.74 3776.42l-10.4 18.03-10.42-18.03.82-.48 9.6 16.6 9.58-16.6z" stroke="#3a414a" stroke-width=".05" fill="#3a414a"/><g><use xlink:href="#Q" transform="matrix(1,0,0,1,1545.3652084769503,3614.20000892182) translate(0 14.4)"/></g><defs><path fill="#3a414a" d="M232-93c-1 65-40 97-104 97C67 4 28-28 28-90v-158h33c8 89-33 224 67 224 102 0 64-133 71-224h33v155" id="R"/><path fill="#3a414a" d="M135-143c-3-34-86-38-87 0 15 53 115 12 119 90S17 21 10-45l28-5c4 36 97 45 98 0-10-56-113-15-118-90-4-57 82-63 122-42 12 7 21 19 24 35" id="S"/><path fill="#3a414a" d="M100-194c63 0 86 42 84 106H49c0 40 14 67 53 68 26 1 43-12 49-29l28 8c-11 28-37 45-77 45C44 4 14-33 15-96c1-61 26-98 85-98zm52 81c6-60-76-77-97-28-3 7-6 17-6 28h103" id="T"/><path fill="#3a414a" d="M114-163C36-179 61-72 57 0H25l-1-190h30c1 12-1 29 2 39 6-27 23-49 58-41v29" id="U"/><g id="a"><use transform="matrix(0.05,0,0,0.05,0,0)" xlink:href="#R"/><use transform="matrix(0.05,0,0,0.05,12.950000000000001,0)" xlink:href="#S"/><use transform="matrix(0.05,0,0,0.05,21.950000000000003,0)" xlink:href="#T"/><use transform="matrix(0.05,0,0,0.05,31.950000000000003,0)" xlink:href="#U"/></g><path fill="#3a414a" d="M30 0v-248h33v221h125V0H30" id="V"/><path fill="#3a414a" d="M100-194c62-1 85 37 85 99 1 63-27 99-86 99S16-35 15-95c0-66 28-99 85-99zM99-20c44 1 53-31 53-75 0-43-8-75-51-75s-53 32-53 75 10 74 51 75" id="W"/><path fill="#3a414a" d="M117-194c89-4 53 116 60 194h-32v-121c0-31-8-49-39-48C34-167 62-67 57 0H25l-1-190h30c1 10-1 24 2 32 11-22 29-35 61-36" id="X"/><path fill="#3a414a" d="M177-190C167-65 218 103 67 71c-23-6-38-20-44-43l32-5c15 47 100 32 89-28v-30C133-14 115 1 83 1 29 1 15-40 15-95c0-56 16-97 71-98 29-1 48 16 59 35 1-10 0-23 2-32h30zM94-22c36 0 50-32 50-73 0-42-14-75-50-75-39 0-46 34-46 75s6 73 46 73" id="Y"/><g id="b"><use transform="matrix(0.05,0,0,0.05,0,0)" xlink:href="#V"/><use transform="matrix(0.05,0,0,0.05,10,0)" xlink:href="#W"/><use transform="matrix(0.05,0,0,0.05,20,0)" xlink:href="#X"/><use transform="matrix(0.05,0,0,0.05,30,0)" xlink:href="#Y"/></g><path fill="#3a414a" d="M84 4C-5 8 30-112 23-190h32v120c0 31 7 50 39 49 72-2 45-101 50-169h31l1 190h-30c-1-10 1-25-2-33-11 22-28 36-60 37" id="Z"/><path fill="#3a414a" d="M33 0v-248h34V0H33" id="aa"/><path fill="#3a414a" d="M85-194c31 0 48 13 60 33l-1-100h32l1 261h-30c-2-10 0-23-3-31C134-8 116 4 85 4 32 4 16-35 15-94c0-66 23-100 70-100zm9 24c-40 0-46 34-46 75 0 40 6 74 45 74 42 0 51-32 51-76 0-42-9-74-50-73" id="ab"/><g id="c"><use transform="matrix(0.05,0,0,0.05,0,0)" xlink:href="#Z"/><use transform="matrix(0.05,0,0,0.05,10,0)" xlink:href="#S"/><use transform="matrix(0.05,0,0,0.05,19,0)" xlink:href="#T"/><use transform="matrix(0.05,0,0,0.05,29,0)" xlink:href="#U"/><use transform="matrix(0.05,0,0,0.05,34.95,0)" xlink:href="#aa"/><use transform="matrix(0.05,0,0,0.05,39.95,0)" xlink:href="#ab"/></g><path fill="#3a414a" d="M185-189c-5-48-123-54-124 2 14 75 158 14 163 119 3 78-121 87-175 55-17-10-28-26-33-46l33-7c5 56 141 63 141-1 0-78-155-14-162-118-5-82 145-84 179-34 5 7 8 16 11 25" id="ac"/><path fill="#3a414a" d="M59-47c-2 24 18 29 38 22v24C64 9 27 4 27-40v-127H5v-23h24l9-43h21v43h35v23H59v120" id="ad"/><path fill="#3a414a" d="M24-231v-30h32v30H24zM24 0v-190h32V0H24" id="ae"/><g id="d"><use transform="matrix(0.05,0,0,0.05,0,0)" xlink:href="#ac"/><use transform="matrix(0.05,0,0,0.05,12,0)" xlink:href="#ad"/><use transform="matrix(0.05,0,0,0.05,17,0)" xlink:href="#U"/><use transform="matrix(0.05,0,0,0.05,22.95,0)" xlink:href="#ae"/><use transform="matrix(0.05,0,0,0.05,26.899999999999995,0)" xlink:href="#X"/><use transform="matrix(0.05,0,0,0.05,36.9,0)" xlink:href="#Y"/></g><path fill="#3a414a" d="M210-169c-67 3-38 105-44 169h-31v-121c0-29-5-50-35-48C34-165 62-65 56 0H25l-1-190h30c1 10-1 24 2 32 10-44 99-50 107 0 11-21 27-35 58-36 85-2 47 119 55 194h-31v-121c0-29-5-49-35-48" id="af"/><path fill="#3a414a" d="M141-36C126-15 110 5 73 4 37 3 15-17 15-53c-1-64 63-63 125-63 3-35-9-54-41-54-24 1-41 7-42 31l-33-3c5-37 33-52 76-52 45 0 72 20 72 64v82c-1 20 7 32 28 27v20c-31 9-61-2-59-35zM48-53c0 20 12 33 32 33 41-3 63-29 60-74-43 2-92-5-92 41" id="ag"/><path fill="#3a414a" d="M24 0v-261h32V0H24" id="ah"/><g id="e"><use transform="matrix(0.05,0,0,0.05,0,0)" xlink:href="#T"/><use transform="matrix(0.05,0,0,0.05,10,0)" xlink:href="#af"/><use transform="matrix(0.05,0,0,0.05,24.950000000000003,0)" xlink:href="#ag"/><use transform="matrix(0.05,0,0,0.05,34.95,0)" xlink:href="#ae"/><use transform="matrix(0.05,0,0,0.05,38.900000000000006,0)" xlink:href="#ah"/></g><g id="f"><use transform="matrix(0.05,0,0,0.05,0,0)" xlink:href="#Z"/><use transform="matrix(0.05,0,0,0.05,10,0)" xlink:href="#S"/><use transform="matrix(0.05,0,0,0.05,19,0)" xlink:href="#T"/><use transform="matrix(0.05,0,0,0.05,29,0)" xlink:href="#U"/><use transform="matrix(0.05,0,0,0.05,34.95,0)" xlink:href="#X"/><use transform="matrix(0.05,0,0,0.05,44.95,0)" xlink:href="#ag"/><use transform="matrix(0.05,0,0,0.05,54.95,0)" xlink:href="#af"/><use transform="matrix(0.05,0,0,0.05,69.9,0)" xlink:href="#T"/></g><path fill="#3a414a" d="M115-194c55 1 70 41 70 98S169 2 115 4C84 4 66-9 55-30l1 105H24l-1-265h31l2 30c10-21 28-34 59-34zm-8 174c40 0 45-34 45-75s-6-73-45-74c-42 0-51 32-51 76 0 43 10 73 51 73" id="ai"/><path fill="#3a414a" d="M206 0h-36l-40-164L89 0H53L-1-190h32L70-26l43-164h34l41 164 42-164h31" id="aj"/><g id="g"><use transform="matrix(0.05,0,0,0.05,0,0)" xlink:href="#ai"/><use transform="matrix(0.05,0,0,0.05,10,0)" xlink:href="#ag"/><use transform="matrix(0.05,0,0,0.05,20,0)" xlink:href="#S"/><use transform="matrix(0.05,0,0,0.05,29,0)" xlink:href="#S"/><use transform="matrix(0.05,0,0,0.05,38,0)" xlink:href="#aj"/><use transform="matrix(0.05,0,0,0.05,50.95,0)" xlink:href="#W"/><use transform="matrix(0.05,0,0,0.05,60.95,0)" xlink:href="#U"/><use transform="matrix(0.05,0,0,0.05,66.9,0)" xlink:href="#ab"/></g><path fill="#3a414a" d="M30 0v-248h187v28H63v79h144v27H63v87h162V0H30" id="ak"/><g id="h"><use transform="matrix(0.05,0,0,0.05,0,0)" xlink:href="#ak"/><use transform="matrix(0.05,0,0,0.05,12,0)" xlink:href="#X"/><use transform="matrix(0.05,0,0,0.05,22,0)" xlink:href="#Z"/><use transform="matrix(0.05,0,0,0.05,32,0)" xlink:href="#af"/></g><g id="i"><use transform="matrix(0.05,0,0,0.05,0,0)" xlink:href="#U"/><use transform="matrix(0.05,0,0,0.05,5.95,0)" xlink:href="#W"/><use transform="matrix(0.05,0,0,0.05,15.949999999999998,0)" xlink:href="#ah"/><use transform="matrix(0.05,0,0,0.05,19.9,0)" xlink:href="#T"/></g><path fill="#3a414a" d="M18-100v-36l175-74v27L42-118l151 64v27" id="al"/><path fill="#3a414a" d="M160-131c35 5 61 23 61 61C221 17 115-2 30 0v-248c76 3 177-17 177 60 0 33-19 50-47 57zm-97-11c50-1 110 9 110-42 0-47-63-36-110-37v79zm0 115c55-2 124 14 124-45 0-56-70-42-124-44v89" id="am"/><path fill="#3a414a" d="M137-103V0h-34v-103L8-248h37l75 118 75-118h37" id="an"/><path fill="#3a414a" d="M233-177c-1 41-23 64-60 70L243 0h-38l-65-103H63V0H30v-248c88 3 205-21 203 71zM63-129c60-2 137 13 137-47 0-61-80-42-137-45v92" id="ao"/><path fill="#3a414a" d="M68-38c1 34 0 65-14 84H32c9-13 17-26 17-46H33v-38h35" id="ap"/><g id="j"><use transform="matrix(0.05,0,0,0.05,0,0)" xlink:href="#al"/><use transform="matrix(0.05,0,0,0.05,10.5,0)" xlink:href="#al"/><use transform="matrix(0.05,0,0,0.05,21,0)" xlink:href="#am"/><use transform="matrix(0.05,0,0,0.05,33,0)" xlink:href="#R"/><use transform="matrix(0.05,0,0,0.05,45.95,0)" xlink:href="#an"/><use transform="matrix(0.05,0,0,0.05,57.95,0)" xlink:href="#ak"/><use transform="matrix(0.05,0,0,0.05,69.95,0)" xlink:href="#ao"/><use transform="matrix(0.05,0,0,0.05,82.9,0)" xlink:href="#ap"/></g><path fill="#3a414a" d="M18-27v-27l151-64-151-65v-27l175 74v36" id="aq"/><g id="k"><use transform="matrix(0.05,0,0,0.05,0,0)" xlink:href="#ac"/><use transform="matrix(0.05,0,0,0.05,12,0)" xlink:href="#ak"/><use transform="matrix(0.05,0,0,0.05,24,0)" xlink:href="#V"/><use transform="matrix(0.05,0,0,0.05,34,0)" xlink:href="#V"/><use transform="matrix(0.05,0,0,0.05,44,0)" xlink:href="#ak"/><use transform="matrix(0.05,0,0,0.05,56,0)" xlink:href="#ao"/><use transform="matrix(0.05,0,0,0.05,68.95,0)" xlink:href="#aq"/><use transform="matrix(0.05,0,0,0.05,79.45,0)" xlink:href="#aq"/></g><path fill="#3a414a" d="M205 0l-28-72H64L36 0H1l101-248h38L239 0h-34zm-38-99l-47-123c-12 45-31 82-46 123h93" id="ar"/><path fill="#3a414a" d="M108 0H70L1-190h34L89-25l56-165h34" id="as"/><g id="l"><use transform="matrix(0.05,0,0,0.05,0,0)" xlink:href="#ar"/><use transform="matrix(0.05,0,0,0.05,12,0)" xlink:href="#ab"/><use transform="matrix(0.05,0,0,0.05,22,0)" xlink:href="#as"/><use transform="matrix(0.05,0,0,0.05,31,0)" xlink:href="#T"/><use transform="matrix(0.05,0,0,0.05,41,0)" xlink:href="#U"/><use transform="matrix(0.05,0,0,0.05,46.95,0)" xlink:href="#ad"/><use transform="matrix(0.05,0,0,0.05,51.95,0)" xlink:href="#ae"/><use transform="matrix(0.05,0,0,0.05,55.900000000000006,0)" xlink:href="#S"/><use transform="matrix(0.05,0,0,0.05,64.9,0)" xlink:href="#T"/><use transform="matrix(0.05,0,0,0.05,74.9,0)" xlink:href="#af"/><use transform="matrix(0.05,0,0,0.05,89.85000000000001,0)" xlink:href="#T"/><use transform="matrix(0.05,0,0,0.05,99.85000000000001,0)" xlink:href="#X"/><use transform="matrix(0.05,0,0,0.05,109.85000000000001,0)" xlink:href="#ad"/></g><g id="m"><use transform="matrix(0.05,0,0,0.05,0,0)" xlink:href="#ag"/><use transform="matrix(0.05,0,0,0.05,10,0)" xlink:href="#ab"/><use transform="matrix(0.05,0,0,0.05,20,0)" xlink:href="#aa"/><use transform="matrix(0.05,0,0,0.05,25,0)" xlink:href="#ab"/></g><g id="n"><use transform="matrix(0.05,0,0,0.05,0,0)" xlink:href="#ad"/><use transform="matrix(0.05,0,0,0.05,5,0)" xlink:href="#ae"/><use transform="matrix(0.05,0,0,0.05,8.95,0)" xlink:href="#ad"/><use transform="matrix(0.05,0,0,0.05,13.949999999999998,0)" xlink:href="#ah"/><use transform="matrix(0.05,0,0,0.05,17.9,0)" xlink:href="#T"/></g><path fill="#3a414a" d="M96-169c-40 0-48 33-48 73s9 75 48 75c24 0 41-14 43-38l32 2c-6 37-31 61-74 61-59 0-76-41-82-99-10-93 101-131 147-64 4 7 5 14 7 22l-32 3c-4-21-16-35-41-35" id="at"/><g id="o"><use transform="matrix(0.05,0,0,0.05,0,0)" xlink:href="#ab"/><use transform="matrix(0.05,0,0,0.05,10,0)" xlink:href="#T"/><use transform="matrix(0.05,0,0,0.05,20,0)" xlink:href="#S"/><use transform="matrix(0.05,0,0,0.05,29,0)" xlink:href="#at"/><use transform="matrix(0.05,0,0,0.05,38,0)" xlink:href="#U"/><use transform="matrix(0.05,0,0,0.05,43.95,0)" xlink:href="#ae"/><use transform="matrix(0.05,0,0,0.05,47.900000000000006,0)" xlink:href="#ai"/><use transform="matrix(0.05,0,0,0.05,57.900000000000006,0)" xlink:href="#ad"/><use transform="matrix(0.05,0,0,0.05,62.900000000000006,0)" xlink:href="#ae"/><use transform="matrix(0.05,0,0,0.05,66.85000000000001,0)" xlink:href="#W"/><use transform="matrix(0.05,0,0,0.05,76.85000000000001,0)" xlink:href="#X"/></g><path fill="#3a414a" d="M30-248c118-7 216 8 213 122C240-48 200 0 122 0H30v-248zM63-27c89 8 146-16 146-99s-60-101-146-95v194" id="au"/><g id="p"><use transform="matrix(0.05,0,0,0.05,0,0)" xlink:href="#am"/><use transform="matrix(0.05,0,0,0.05,12,0)" xlink:href="#ae"/><use transform="matrix(0.05,0,0,0.05,15.949999999999998,0)" xlink:href="#Y"/><use transform="matrix(0.05,0,0,0.05,25.950000000000003,0)" xlink:href="#au"/><use transform="matrix(0.05,0,0,0.05,38.9,0)" xlink:href="#T"/><use transform="matrix(0.05,0,0,0.05,48.9,0)" xlink:href="#at"/><use transform="matrix(0.05,0,0,0.05,57.900000000000006,0)" xlink:href="#ae"/><use transform="matrix(0.05,0,0,0.05,61.85,0)" xlink:href="#af"/><use transform="matrix(0.05,0,0,0.05,76.8,0)" xlink:href="#ag"/><use transform="matrix(0.05,0,0,0.05,86.8,0)" xlink:href="#ah"/></g><g id="q"><use transform="matrix(0.05,0,0,0.05,0,0)" xlink:href="#ai"/><use transform="matrix(0.05,0,0,0.05,10,0)" xlink:href="#U"/><use transform="matrix(0.05,0,0,0.05,15.949999999999998,0)" xlink:href="#ae"/><use transform="matrix(0.05,0,0,0.05,19.9,0)" xlink:href="#at"/><use transform="matrix(0.05,0,0,0.05,28.899999999999995,0)" xlink:href="#T"/></g><g id="r"><use transform="matrix(0.05,0,0,0.05,0,0)" xlink:href="#S"/><use transform="matrix(0.05,0,0,0.05,9,0)" xlink:href="#ad"/><use transform="matrix(0.05,0,0,0.05,14,0)" xlink:href="#ag"/><use transform="matrix(0.05,0,0,0.05,24,0)" xlink:href="#ad"/><use transform="matrix(0.05,0,0,0.05,29,0)" xlink:href="#Z"/><use transform="matrix(0.05,0,0,0.05,39,0)" xlink:href="#S"/></g><path fill="#3a414a" d="M127-220V0H93v-220H8v-28h204v28h-85" id="av"/><g id="s"><use transform="matrix(0.05,0,0,0.05,0,0)" xlink:href="#V"/><use transform="matrix(0.05,0,0,0.05,10,0)" xlink:href="#W"/><use transform="matrix(0.05,0,0,0.05,20,0)" xlink:href="#at"/><use transform="matrix(0.05,0,0,0.05,29,0)" xlink:href="#ag"/><use transform="matrix(0.05,0,0,0.05,39,0)" xlink:href="#ah"/><use transform="matrix(0.05,0,0,0.05,42.95,0)" xlink:href="#au"/><use transform="matrix(0.05,0,0,0.05,55.900000000000006,0)" xlink:href="#ag"/><use transform="matrix(0.05,0,0,0.05,65.9,0)" xlink:href="#ad"/><use transform="matrix(0.05,0,0,0.05,70.9,0)" xlink:href="#T"/><use transform="matrix(0.05,0,0,0.05,80.9,0)" xlink:href="#av"/><use transform="matrix(0.05,0,0,0.05,91.2,0)" xlink:href="#ae"/><use transform="matrix(0.05,0,0,0.05,95.15,0)" xlink:href="#af"/><use transform="matrix(0.05,0,0,0.05,110.10000000000001,0)" xlink:href="#T"/></g><g id="t"><use transform="matrix(0.05,0,0,0.05,0,0)" xlink:href="#at"/><use transform="matrix(0.05,0,0,0.05,9,0)" xlink:href="#U"/><use transform="matrix(0.05,0,0,0.05,14.949999999999998,0)" xlink:href="#T"/><use transform="matrix(0.05,0,0,0.05,24.95,0)" xlink:href="#ag"/><use transform="matrix(0.05,0,0,0.05,34.95,0)" xlink:href="#ad"/><use transform="matrix(0.05,0,0,0.05,39.95,0)" xlink:href="#T"/><use transform="matrix(0.05,0,0,0.05,49.95,0)" xlink:href="#ab"/><use transform="matrix(0.05,0,0,0.05,59.95,0)" xlink:href="#ar"/><use transform="matrix(0.05,0,0,0.05,71.95,0)" xlink:href="#ad"/></g><path fill="#3a414a" d="M141 0L90-78 38 0H4l68-98-65-92h35l48 74 47-74h35l-64 92 68 98h-35" id="aw"/><g id="u"><use transform="matrix(0.05,0,0,0.05,0,0)" xlink:href="#T"/><use transform="matrix(0.05,0,0,0.05,10,0)" xlink:href="#aw"/><use transform="matrix(0.05,0,0,0.05,19,0)" xlink:href="#ai"/><use transform="matrix(0.05,0,0,0.05,29,0)" xlink:href="#ae"/><use transform="matrix(0.05,0,0,0.05,32.95,0)" xlink:href="#U"/><use transform="matrix(0.05,0,0,0.05,38.900000000000006,0)" xlink:href="#T"/><use transform="matrix(0.05,0,0,0.05,48.900000000000006,0)" xlink:href="#S"/><use transform="matrix(0.05,0,0,0.05,57.900000000000006,0)" xlink:href="#ar"/><use transform="matrix(0.05,0,0,0.05,69.9,0)" xlink:href="#ad"/></g><path fill="#3a414a" d="M212-179c-10-28-35-45-73-45-59 0-87 40-87 99 0 60 29 101 89 101 43 0 62-24 78-52l27 14C228-24 195 4 139 4 59 4 22-46 18-125c-6-104 99-153 187-111 19 9 31 26 39 46" id="ax"/><path fill="#3a414a" d="M137 0h-34L2-248h35l83 218 83-218h36" id="ay"/><g id="v"><use transform="matrix(0.05,0,0,0.05,0,0)" xlink:href="#al"/><use transform="matrix(0.05,0,0,0.05,10.5,0)" xlink:href="#al"/><use transform="matrix(0.05,0,0,0.05,21,0)" xlink:href="#ar"/><use transform="matrix(0.05,0,0,0.05,33,0)" xlink:href="#ax"/><use transform="matrix(0.05,0,0,0.05,45.95,0)" xlink:href="#av"/><use transform="matrix(0.05,0,0,0.05,56.900000000000006,0)" xlink:href="#aa"/><use transform="matrix(0.05,0,0,0.05,61.900000000000006,0)" xlink:href="#ay"/><use transform="matrix(0.05,0,0,0.05,73.9,0)" xlink:href="#ak"/><use transform="matrix(0.05,0,0,0.05,85.9,0)" xlink:href="#ap"/></g><path fill="#3a414a" d="M195 0l-74-108L45 0H8l94-129-87-119h37l69 98 67-98h37l-84 118L233 0h-38" id="az"/><path fill="#3a414a" d="M30-248c87 1 191-15 191 75 0 78-77 80-158 76V0H30v-248zm33 125c57 0 124 11 124-50 0-59-68-47-124-48v98" id="aA"/><g id="w"><use transform="matrix(0.05,0,0,0.05,0,0)" xlink:href="#ak"/><use transform="matrix(0.05,0,0,0.05,12,0)" xlink:href="#az"/><use transform="matrix(0.05,0,0,0.05,24,0)" xlink:href="#aA"/><use transform="matrix(0.05,0,0,0.05,36,0)" xlink:href="#aa"/><use transform="matrix(0.05,0,0,0.05,41,0)" xlink:href="#ao"/><use transform="matrix(0.05,0,0,0.05,53.95,0)" xlink:href="#ak"/><use transform="matrix(0.05,0,0,0.05,65.95,0)" xlink:href="#au"/><use transform="matrix(0.05,0,0,0.05,78.9,0)" xlink:href="#aq"/><use transform="matrix(0.05,0,0,0.05,89.4,0)" xlink:href="#aq"/></g><path fill="#3a414a" d="M179-190L93 31C79 59 56 82 12 73V49c39 6 53-20 64-50L1-190h34L92-34l54-156h33" id="aB"/><g id="x"><use transform="matrix(0.05,0,0,0.05,0,0)" xlink:href="#ax"/><use transform="matrix(0.05,0,0,0.05,12.950000000000001,0)" xlink:href="#ag"/><use transform="matrix(0.05,0,0,0.05,22.950000000000003,0)" xlink:href="#ad"/><use transform="matrix(0.05,0,0,0.05,27.950000000000003,0)" xlink:href="#T"/><use transform="matrix(0.05,0,0,0.05,37.95,0)" xlink:href="#Y"/><use transform="matrix(0.05,0,0,0.05,47.95,0)" xlink:href="#W"/><use transform="matrix(0.05,0,0,0.05,57.95,0)" xlink:href="#U"/><use transform="matrix(0.05,0,0,0.05,63.900000000000006,0)" xlink:href="#aB"/></g><g id="y"><use transform="matrix(0.05,0,0,0.05,0,0)" xlink:href="#at"/><use transform="matrix(0.05,0,0,0.05,9,0)" xlink:href="#ag"/><use transform="matrix(0.05,0,0,0.05,19,0)" xlink:href="#ad"/><use transform="matrix(0.05,0,0,0.05,24,0)" xlink:href="#T"/><use transform="matrix(0.05,0,0,0.05,34,0)" xlink:href="#Y"/><use transform="matrix(0.05,0,0,0.05,44,0)" xlink:href="#W"/><use transform="matrix(0.05,0,0,0.05,54,0)" xlink:href="#U"/><use transform="matrix(0.05,0,0,0.05,59.95,0)" xlink:href="#aB"/><use transform="matrix(0.05,0,0,0.05,68.95,0)" xlink:href="#aa"/><use transform="matrix(0.05,0,0,0.05,73.95,0)" xlink:href="#ab"/></g><g id="z"><use transform="matrix(0.05,0,0,0.05,0,0)" xlink:href="#X"/><use transform="matrix(0.05,0,0,0.05,10,0)" xlink:href="#ag"/><use transform="matrix(0.05,0,0,0.05,20,0)" xlink:href="#af"/><use transform="matrix(0.05,0,0,0.05,34.95,0)" xlink:href="#T"/></g><g id="A"><use transform="matrix(0.05,0,0,0.05,0,0)" xlink:href="#ab"/><use transform="matrix(0.05,0,0,0.05,10,0)" xlink:href="#T"/><use transform="matrix(0.05,0,0,0.05,20,0)" xlink:href="#S"/><use transform="matrix(0.05,0,0,0.05,29,0)" xlink:href="#at"/><use transform="matrix(0.05,0,0,0.05,38,0)" xlink:href="#U"/><use transform="matrix(0.05,0,0,0.05,43.95,0)" xlink:href="#ae"/><use transform="matrix(0.05,0,0,0.05,47.900000000000006,0)" xlink:href="#ai"/><use transform="matrix(0.05,0,0,0.05,57.900000000000006,0)" xlink:href="#ad"/><use transform="matrix(0.05,0,0,0.05,62.900000000000006,0)" xlink:href="#ae"/><use transform="matrix(0.05,0,0,0.05,66.85000000000001,0)" xlink:href="#W"/><use transform="matrix(0.05,0,0,0.05,76.85000000000001,0)" xlink:href="#X"/></g><path fill="#3a414a" d="M140-251c81 0 123 46 123 126C263-46 219 4 140 4 59 4 17-45 17-125s42-126 123-126zm0 227c63 0 89-41 89-101s-29-99-89-99c-61 0-89 39-89 99S79-25 140-24" id="aC"/><g id="B"><use transform="matrix(0.05,0,0,0.05,0,0)" xlink:href="#aC"/><use transform="matrix(0.05,0,0,0.05,14,0)" xlink:href="#U"/><use transform="matrix(0.05,0,0,0.05,19.95,0)" xlink:href="#ab"/><use transform="matrix(0.05,0,0,0.05,29.950000000000003,0)" xlink:href="#T"/><use transform="matrix(0.05,0,0,0.05,39.95,0)" xlink:href="#U"/></g><g id="C"><use transform="matrix(0.05,0,0,0.05,0,0)" xlink:href="#W"/><use transform="matrix(0.05,0,0,0.05,10,0)" xlink:href="#U"/><use transform="matrix(0.05,0,0,0.05,15.949999999999998,0)" xlink:href="#ab"/><use transform="matrix(0.05,0,0,0.05,25.950000000000003,0)" xlink:href="#T"/><use transform="matrix(0.05,0,0,0.05,35.95,0)" xlink:href="#U"/><use transform="matrix(0.05,0,0,0.05,41.900000000000006,0)" xlink:href="#aa"/><use transform="matrix(0.05,0,0,0.05,46.900000000000006,0)" xlink:href="#ab"/></g><path fill="#3a414a" d="M115-194c53 0 69 39 70 98 0 66-23 100-70 100C84 3 66-7 56-30L54 0H23l1-261h32v101c10-23 28-34 59-34zm-8 174c40 0 45-34 45-75 0-40-5-75-45-74-42 0-51 32-51 76 0 43 10 73 51 73" id="aD"/><g id="D"><use transform="matrix(0.05,0,0,0.05,0,0)" xlink:href="#aD"/><use transform="matrix(0.05,0,0,0.05,10,0)" xlink:href="#Z"/><use transform="matrix(0.05,0,0,0.05,20,0)" xlink:href="#aB"/><use transform="matrix(0.05,0,0,0.05,29,0)" xlink:href="#T"/><use transform="matrix(0.05,0,0,0.05,39,0)" xlink:href="#U"/><use transform="matrix(0.05,0,0,0.05,44.95,0)" xlink:href="#aa"/><use transform="matrix(0.05,0,0,0.05,49.95,0)" xlink:href="#ab"/></g><g id="E"><use transform="matrix(0.05,0,0,0.05,0,0)" xlink:href="#at"/><use transform="matrix(0.05,0,0,0.05,9,0)" xlink:href="#U"/><use transform="matrix(0.05,0,0,0.05,14.949999999999998,0)" xlink:href="#T"/><use transform="matrix(0.05,0,0,0.05,24.95,0)" xlink:href="#ag"/><use transform="matrix(0.05,0,0,0.05,34.95,0)" xlink:href="#ad"/><use transform="matrix(0.05,0,0,0.05,39.95,0)" xlink:href="#T"/><use transform="matrix(0.05,0,0,0.05,49.95,0)" xlink:href="#ab"/><use transform="matrix(0.05,0,0,0.05,59.95,0)" xlink:href="#ar"/><use transform="matrix(0.05,0,0,0.05,71.95,0)" xlink:href="#ad"/></g><path fill="#3a414a" d="M106-169C34-169 62-67 57 0H25v-261h32l-1 103c12-21 28-36 61-36 89 0 53 116 60 194h-32v-121c2-32-8-49-39-48" id="aE"/><g id="F"><use transform="matrix(0.05,0,0,0.05,0,0)" xlink:href="#ar"/><use transform="matrix(0.05,0,0,0.05,12,0)" xlink:href="#Z"/><use transform="matrix(0.05,0,0,0.05,22,0)" xlink:href="#ad"/><use transform="matrix(0.05,0,0,0.05,27,0)" xlink:href="#aE"/><use transform="matrix(0.05,0,0,0.05,37,0)" xlink:href="#T"/><use transform="matrix(0.05,0,0,0.05,47,0)" xlink:href="#X"/><use transform="matrix(0.05,0,0,0.05,57,0)" xlink:href="#ad"/><use transform="matrix(0.05,0,0,0.05,62,0)" xlink:href="#ae"/><use transform="matrix(0.05,0,0,0.05,65.95,0)" xlink:href="#at"/><use transform="matrix(0.05,0,0,0.05,74.95,0)" xlink:href="#ag"/><use transform="matrix(0.05,0,0,0.05,84.95,0)" xlink:href="#ad"/><use transform="matrix(0.05,0,0,0.05,89.95,0)" xlink:href="#ae"/><use transform="matrix(0.05,0,0,0.05,93.9,0)" xlink:href="#W"/><use transform="matrix(0.05,0,0,0.05,103.9,0)" xlink:href="#X"/></g><g id="G"><use transform="matrix(0.05,0,0,0.05,0,0)" xlink:href="#ag"/><use transform="matrix(0.05,0,0,0.05,10,0)" xlink:href="#Z"/><use transform="matrix(0.05,0,0,0.05,20,0)" xlink:href="#ad"/><use transform="matrix(0.05,0,0,0.05,25,0)" xlink:href="#aE"/><use transform="matrix(0.05,0,0,0.05,35,0)" xlink:href="#aa"/><use transform="matrix(0.05,0,0,0.05,40,0)" xlink:href="#ab"/></g><path fill="#3a414a" d="M197 0v-115H63V0H30v-248h33v105h134v-105h34V0h-34" id="aF"/><g id="H"><use transform="matrix(0.05,0,0,0.05,0,0)" xlink:href="#ai"/><use transform="matrix(0.05,0,0,0.05,10,0)" xlink:href="#ag"/><use transform="matrix(0.05,0,0,0.05,20,0)" xlink:href="#S"/><use transform="matrix(0.05,0,0,0.05,29,0)" xlink:href="#S"/><use transform="matrix(0.05,0,0,0.05,38,0)" xlink:href="#aj"/><use transform="matrix(0.05,0,0,0.05,50.95,0)" xlink:href="#W"/><use transform="matrix(0.05,0,0,0.05,60.95,0)" xlink:href="#U"/><use transform="matrix(0.05,0,0,0.05,66.9,0)" xlink:href="#ab"/><use transform="matrix(0.05,0,0,0.05,76.9,0)" xlink:href="#aF"/><use transform="matrix(0.05,0,0,0.05,89.85000000000001,0)" xlink:href="#ag"/><use transform="matrix(0.05,0,0,0.05,99.85000000000001,0)" xlink:href="#S"/><use transform="matrix(0.05,0,0,0.05,108.85000000000001,0)" xlink:href="#aE"/></g><path fill="#3a414a" d="M109-170H84l-4-78h32zm-65 0H19l-4-78h33" id="aG"/><g id="I"><use transform="matrix(0.05,0,0,0.05,0,0)" xlink:href="#aG"/><use transform="matrix(0.05,0,0,0.05,6.3500000000000005,0)" xlink:href="#at"/><use transform="matrix(0.05,0,0,0.05,15.350000000000001,0)" xlink:href="#U"/><use transform="matrix(0.05,0,0,0.05,21.3,0)" xlink:href="#T"/><use transform="matrix(0.05,0,0,0.05,31.3,0)" xlink:href="#ag"/><use transform="matrix(0.05,0,0,0.05,41.3,0)" xlink:href="#ad"/><use transform="matrix(0.05,0,0,0.05,46.3,0)" xlink:href="#T"/><use transform="matrix(0.05,0,0,0.05,56.29999999999999,0)" xlink:href="#S"/><use transform="matrix(0.05,0,0,0.05,65.3,0)" xlink:href="#aG"/></g><path fill="#3a414a" d="M9 0v-24l116-142H16v-24h144v24L44-24h123V0H9" id="aH"/><g id="J"><use transform="matrix(0.05,0,0,0.05,0,0)" xlink:href="#aG"/><use transform="matrix(0.05,0,0,0.05,6.3500000000000005,0)" xlink:href="#at"/><use transform="matrix(0.05,0,0,0.05,15.350000000000001,0)" xlink:href="#ag"/><use transform="matrix(0.05,0,0,0.05,25.35,0)" xlink:href="#ad"/><use transform="matrix(0.05,0,0,0.05,30.35,0)" xlink:href="#T"/><use transform="matrix(0.05,0,0,0.05,40.35,0)" xlink:href="#Y"/><use transform="matrix(0.05,0,0,0.05,50.35,0)" xlink:href="#W"/><use transform="matrix(0.05,0,0,0.05,60.35,0)" xlink:href="#U"/><use transform="matrix(0.05,0,0,0.05,66.3,0)" xlink:href="#ae"/><use transform="matrix(0.05,0,0,0.05,70.25,0)" xlink:href="#aH"/><use transform="matrix(0.05,0,0,0.05,79.25,0)" xlink:href="#T"/><use transform="matrix(0.05,0,0,0.05,89.25,0)" xlink:href="#ab"/></g><g id="K"><use transform="matrix(0.05,0,0,0.05,0,0)" xlink:href="#Z"/><use transform="matrix(0.05,0,0,0.05,10,0)" xlink:href="#X"/><use transform="matrix(0.05,0,0,0.05,20,0)" xlink:href="#ab"/><use transform="matrix(0.05,0,0,0.05,30,0)" xlink:href="#T"/><use transform="matrix(0.05,0,0,0.05,40,0)" xlink:href="#U"/><use transform="matrix(0.05,0,0,0.05,45.95,0)" xlink:href="#aG"/></g><g id="L"><use transform="matrix(0.05,0,0,0.05,0,0)" xlink:href="#aG"/><use transform="matrix(0.05,0,0,0.05,6.3500000000000005,0)" xlink:href="#ag"/><use transform="matrix(0.05,0,0,0.05,16.35,0)" xlink:href="#S"/><use transform="matrix(0.05,0,0,0.05,25.35,0)" xlink:href="#S"/><use transform="matrix(0.05,0,0,0.05,34.35,0)" xlink:href="#W"/><use transform="matrix(0.05,0,0,0.05,44.35,0)" xlink:href="#at"/><use transform="matrix(0.05,0,0,0.05,53.35,0)" xlink:href="#ae"/><use transform="matrix(0.05,0,0,0.05,57.300000000000004,0)" xlink:href="#ag"/><use transform="matrix(0.05,0,0,0.05,67.30000000000001,0)" xlink:href="#ad"/><use transform="matrix(0.05,0,0,0.05,72.30000000000001,0)" xlink:href="#T"/><use transform="matrix(0.05,0,0,0.05,82.30000000000001,0)" xlink:href="#ab"/></g><g id="M"><use transform="matrix(0.05,0,0,0.05,0,0)" xlink:href="#aj"/><use transform="matrix(0.05,0,0,0.05,12.950000000000001,0)" xlink:href="#ae"/><use transform="matrix(0.05,0,0,0.05,16.900000000000002,0)" xlink:href="#ad"/><use transform="matrix(0.05,0,0,0.05,21.900000000000002,0)" xlink:href="#aE"/><use transform="matrix(0.05,0,0,0.05,31.900000000000002,0)" xlink:href="#aG"/></g><path fill="#3a414a" d="M143 0L79-87 56-68V0H24v-261h32v163l83-92h37l-77 82L181 0h-38" id="aI"/><g id="N"><use transform="matrix(0.05,0,0,0.05,0,0)" xlink:href="#aG"/><use transform="matrix(0.05,0,0,0.05,6.3500000000000005,0)" xlink:href="#ah"/><use transform="matrix(0.05,0,0,0.05,10.3,0)" xlink:href="#ae"/><use transform="matrix(0.05,0,0,0.05,14.25,0)" xlink:href="#X"/><use transform="matrix(0.05,0,0,0.05,24.25,0)" xlink:href="#aI"/><use transform="matrix(0.05,0,0,0.05,33.25,0)" xlink:href="#T"/><use transform="matrix(0.05,0,0,0.05,43.25,0)" xlink:href="#ab"/></g><g id="O"><use transform="matrix(0.05,0,0,0.05,0,0)" xlink:href="#ad"/><use transform="matrix(0.05,0,0,0.05,5,0)" xlink:href="#W"/></g><g id="P"><use transform="matrix(0.05,0,0,0.05,0,0)" xlink:href="#aD"/><use transform="matrix(0.05,0,0,0.05,10,0)" xlink:href="#Z"/><use transform="matrix(0.05,0,0,0.05,20,0)" xlink:href="#aB"/><use transform="matrix(0.05,0,0,0.05,29,0)" xlink:href="#T"/><use transform="matrix(0.05,0,0,0.05,39,0)" xlink:href="#U"/><use transform="matrix(0.05,0,0,0.05,44.95,0)" xlink:href="#aG"/></g><g id="Q"><use transform="matrix(0.05,0,0,0.05,0,0)" xlink:href="#aG"/><use transform="matrix(0.05,0,0,0.05,6.3500000000000005,0)" xlink:href="#aE"/><use transform="matrix(0.05,0,0,0.05,16.35,0)" xlink:href="#ag"/><use transform="matrix(0.05,0,0,0.05,26.35,0)" xlink:href="#S"/><use transform="matrix(0.05,0,0,0.05,35.35,0)" xlink:href="#aG"/></g></defs></g></svg>